# xmcd CD database file
#
# Track frame offsets:
#	150
#	31745
#	51667
#	77967
#	98719
#	113155
#	131769
#	148867
#	174670
#	200266
#	220917
#	241301
#	260468
#	277665
#
# Disc length: 3938 seconds
#
# Revision: 0
# Processed by: cddbd v1.5.2PL0 Copyright (c) Steve Scherf et al.
# Submitted via: CDex 1.70beta2
#
DISCID=cb0f600e
DTITLE=Vladimír Mišík and ETC ... - Live Archa and Hosté
DYEAR=2008
DGENRE=Blues
TTITLE0=01 Rainy day
TTITLE1=02 Jako Koni
TTITLE2=03 Got My Mojo Working
TTITLE3=04 Ty II
TTITLE4=05 Tma stéká do kaluží
TTITLE5=06 I Like The World (Sun is so Bright)
TTITLE6=07 Já mám schůzku o půl páte
TTITLE7=08 Doteky
TTITLE8=09 Ples upírů
TTITLE9=10 Poezie
TTITLE10=11 Honduras
TTITLE11=12 Cesta do dětství
TTITLE12=13 Lady Vamp
TTITLE13=14 Jednohubky
EXTD=YEAR: 2008
EXTT0=
EXTT1=
EXTT2=
EXTT3=
EXTT4=
EXTT5=
EXTT6=
EXTT7=
EXTT8=
EXTT9=
EXTT10=
EXTT11=
EXTT12=
EXTT13=
PLAYORDER=
